# xmcd
#
# Track frame offsets:
#  150
#  16257
#  39936
#  61072
#  77500
#  95095
#  121177
#  142307
#  165404
#  183830
#  205146
#
# Disc length: 3099 seconds
#
# Revision: 0
# Processed by: cddbd v1.5.1PL2 Copyright (c) Steve Scherf et al.
# Submitted via: Collectorz.com_Music_Collector 6.10
#
DISCID=850c190b
DTITLE=Sean McConnell - Cold Black Sky
DYEAR=2006
DGENRE=Americana
TTITLE0=All Tied Down
TTITLE1=Cold Black Sky
TTITLE2=At Least I Have Love
TTITLE3=How Did You Get There
TTITLE4=Close Enough
TTITLE5=Echoes Of Mary
TTITLE6=Lie Baby Lie
TTITLE7=My Innocence
TTITLE8=Jail Time
TTITLE9=First Stone
TTITLE10=If These Walls Could Speak
EXTD=
EXTT0=
EXTT1=
EXTT2=
EXTT3=
EXTT4=
EXTT5=
EXTT6=
EXTT7=
EXTT8=
EXTT9=
EXTT10=
PLAYORDER=
